<svg xmlns="http://www.w3.org/2000/svg" width="1920" height="1080"><path d="M249,-203L479,-202L1015,-263Z" fill="#014679" stroke="#014679" stroke-width="1.51"/><path d="M22,-218L249,-203L1015,-263Z" fill="#014275" stroke="#014275" stroke-width="1.51"/><path d="M713,1316L462,1324L1038,1320Z" fill="#0278ac" stroke="#0278ac" stroke-width="1.51"/><path d="M1038,1320L462,1324L1221,1324Z" fill="#017db0" stroke="#017db0" stroke-width="1.51"/><path d="M1308,-195L1479,-176L1740,-193Z" fill="#045a8d" stroke="#045a8d" stroke-width="1.51"/><path d="M1605,1312L1438,1326L1765,1313Z" fill="#018bbe" stroke="#018bbe" stroke-width="1.51"/><path d="M1765,1313L1438,1326L1880,1315Z" fill="#018dc0" stroke="#018dc0" stroke-width="1.51"/><path d="M1308,-195L1740,-193L1990,-247Z" fill="#055c90" stroke="#055c90" stroke-width="1.51"/><path d="M1015,-263L1308,-195L1990,-247Z" fill="#03578a" stroke="#03578a" stroke-width="1.51"/><path d="M2055,-242L1990,-247L2068,-10Z" fill="#066599" stroke="#066599" stroke-width="1.51"/><path d="M1990,-247L1900,-25L2068,-10Z" fill="#05669a" stroke="#05669a" stroke-width="1.51"/><path d="M2066,788L1900,888L2077,971Z" fill="#0187ba" stroke="#0187ba" stroke-width="1.51"/><path d="M2077,971L1937,1085L2079,1142Z" fill="#018cbf" stroke="#018cbf" stroke-width="1.51"/><path d="M2077,971L2079,1142L2088,1251Z" fill="#0190c3" stroke="#0190c3" stroke-width="1.51"/><path d="M2066,788L2077,971L2097,682Z" fill="#0186b9" stroke="#0186b9" stroke-width="1.51"/><path d="M1889,385L1973,540L2115,371Z" fill="#0278ab" stroke="#0278ab" stroke-width="1.51"/><path d="M2036,230L1971,264L2115,371Z" fill="#0374a7" stroke="#0374a7" stroke-width="1.51"/><path d="M2068,-10L2036,131L2115,371Z" fill="#0471a4" stroke="#0471a4" stroke-width="1.51"/><path d="M2036,131L2036,230L2115,371Z" fill="#0473a6" stroke="#0473a6" stroke-width="1.51"/><path d="M2055,-242L2068,-10L2115,371Z" fill="#056ca0" stroke="#056ca0" stroke-width="1.51"/><path d="M2097,682L2077,971L2118,558Z" fill="#0184b7" stroke="#0184b7" stroke-width="1.51"/><path d="M2077,971L2088,1251L2118,558Z" fill="#0189bd" stroke="#0189bd" stroke-width="1.51"/><path d="M2115,371L1973,540L2118,558Z" fill="#027caf" stroke="#027caf" stroke-width="1.51"/><path d="M1973,540L2097,682L2118,558Z" fill="#017fb2" stroke="#017fb2" stroke-width="1.51"/><path d="M1971,264L1889,385L2115,371Z" fill="#0375a8" stroke="#0375a8" stroke-width="1.51"/><path d="M1897,743L2066,788L2097,682Z" fill="#0182b5" stroke="#0182b5" stroke-width="1.51"/><path d="M1973,540L1897,743L2097,682Z" fill="#017fb2" stroke="#017fb2" stroke-width="1.51"/><path d="M1900,888L1912,975L2077,971Z" fill="#0187ba" stroke="#0187ba" stroke-width="1.51"/><path d="M2079,1142L1937,1085L2088,1251Z" fill="#0190c3" stroke="#0190c3" stroke-width="1.51"/><path d="M1937,1085L1880,1315L2088,1251Z" fill="#0190c3" stroke="#0190c3" stroke-width="1.51"/><path d="M1900,-25L2036,131L2068,-10Z" fill="#056b9e" stroke="#056b9e" stroke-width="1.51"/><path d="M1912,975L1937,1085L2077,971Z" fill="#018abd" stroke="#018abd" stroke-width="1.51"/><path d="M1897,743L1900,888L2066,788Z" fill="#0183b6" stroke="#0183b6" stroke-width="1.51"/><path d="M1900,-25L1885,138L2036,131Z" fill="#046b9e" stroke="#046b9e" stroke-width="1.51"/><path d="M1971,264L2036,230L2036,131Z" fill="#0471a4" stroke="#0471a4" stroke-width="1.51"/><path d="M1885,138L1971,264L2036,131Z" fill="#046fa2" stroke="#046fa2" stroke-width="1.51"/><path d="M1796,695L1897,743L1973,540Z" fill="#017db0" stroke="#017db0" stroke-width="1.51"/><path d="M1740,-193L1900,-25L1990,-247Z" fill="#056396" stroke="#056396" stroke-width="1.51"/><path d="M1737,1121L1880,1315L1937,1085Z" fill="#018cbf" stroke="#018cbf" stroke-width="1.51"/><path d="M1816,231L1889,385L1971,264Z" fill="#0371a4" stroke="#0371a4" stroke-width="1.51"/><path d="M1885,138L1816,231L1971,264Z" fill="#046ea2" stroke="#046ea2" stroke-width="1.51"/><path d="M1735,494L1796,695L1973,540Z" fill="#0179ac" stroke="#0179ac" stroke-width="1.51"/><path d="M1889,385L1789,417L1973,540Z" fill="#0276a9" stroke="#0276a9" stroke-width="1.51"/><path d="M1789,417L1735,494L1973,540Z" fill="#0276a9" stroke="#0276a9" stroke-width="1.51"/><path d="M1479,-176L1658,-167L1740,-193Z" fill="#045c90" stroke="#045c90" stroke-width="1.51"/><path d="M1737,1121L1765,1313L1880,1315Z" fill="#018dc0" stroke="#018dc0" stroke-width="1.51"/><path d="M1897,743L1812,889L1900,888Z" fill="#0182b5" stroke="#0182b5" stroke-width="1.51"/><path d="M1740,-193L1771,-17L1900,-25Z" fill="#046397" stroke="#046397" stroke-width="1.51"/><path d="M1753,62L1885,138L1900,-25Z" fill="#04699c" stroke="#04699c" stroke-width="1.51"/><path d="M1912,975L1737,1121L1937,1085Z" fill="#0189bc" stroke="#0189bc" stroke-width="1.51"/><path d="M1771,-17L1753,62L1900,-25Z" fill="#05669a" stroke="#05669a" stroke-width="1.51"/><path d="M1900,888L1812,889L1912,975Z" fill="#0185b8" stroke="#0185b8" stroke-width="1.51"/><path d="M1812,889L1744,954L1912,975Z" fill="#0184b7" stroke="#0184b7" stroke-width="1.51"/><path d="M1744,954L1737,1121L1912,975Z" fill="#0186b9" stroke="#0186b9" stroke-width="1.51"/><path d="M1816,231L1789,417L1889,385Z" fill="#0372a5" stroke="#0372a5" stroke-width="1.51"/><path d="M1796,695L1812,889L1897,743Z" fill="#017fb2" stroke="#017fb2" stroke-width="1.51"/><path d="M1753,62L1816,231L1885,138Z" fill="#046b9e" stroke="#046b9e" stroke-width="1.51"/><path d="M479,-202L735,-201L1015,-263Z" fill="#01497d" stroke="#01497d" stroke-width="1.51"/><path d="M1740,-193L1658,-167L1771,-17Z" fill="#056094" stroke="#056094" stroke-width="1.51"/><path d="M1603,263L1593,335L1789,417Z" fill="#026ea1" stroke="#026ea1" stroke-width="1.51"/><path d="M1735,494L1622,578L1796,695Z" fill="#0177aa" stroke="#0177aa" stroke-width="1.51"/><path d="M1591,712L1615,856L1796,695Z" fill="#017bae" stroke="#017bae" stroke-width="1.51"/><path d="M1796,695L1615,856L1812,889Z" fill="#017eb2" stroke="#017eb2" stroke-width="1.51"/><path d="M1615,856L1744,954L1812,889Z" fill="#0181b4" stroke="#0181b4" stroke-width="1.51"/><path d="M1753,62L1653,70L1816,231Z" fill="#04689c" stroke="#04689c" stroke-width="1.51"/><path d="M1653,70L1603,263L1816,231Z" fill="#036a9d" stroke="#036a9d" stroke-width="1.51"/><path d="M1603,263L1789,417L1816,231Z" fill="#036fa2" stroke="#036fa2" stroke-width="1.51"/><path d="M1737,1121L1587,1191L1765,1313Z" fill="#018abd" stroke="#018abd" stroke-width="1.51"/><path d="M1622,578L1591,712L1796,695Z" fill="#0178ab" stroke="#0178ab" stroke-width="1.51"/><path d="M1587,1191L1605,1312L1765,1313Z" fill="#018bbe" stroke="#018bbe" stroke-width="1.51"/><path d="M1658,-167L1604,-84L1771,-17Z" fill="#046094" stroke="#046094" stroke-width="1.51"/><path d="M1593,335L1735,494L1789,417Z" fill="#0271a4" stroke="#0271a4" stroke-width="1.51"/><path d="M1588,968L1737,1121L1744,954Z" fill="#0184b7" stroke="#0184b7" stroke-width="1.51"/><path d="M1653,70L1753,62L1771,-17Z" fill="#046599" stroke="#046599" stroke-width="1.51"/><path d="M1604,-84L1653,70L1771,-17Z" fill="#046396" stroke="#046396" stroke-width="1.51"/><path d="M1593,335L1515,484L1735,494Z" fill="#0270a3" stroke="#0270a3" stroke-width="1.51"/><path d="M1588,968L1587,1191L1737,1121Z" fill="#0185b8" stroke="#0185b8" stroke-width="1.51"/><path d="M1615,856L1588,968L1744,954Z" fill="#0180b3" stroke="#0180b3" stroke-width="1.51"/><path d="M1515,484L1622,578L1735,494Z" fill="#0173a6" stroke="#0173a6" stroke-width="1.51"/><path d="M1450,105L1603,263L1653,70Z" fill="#036599" stroke="#036599" stroke-width="1.51"/><path d="M1604,-84L1513,-91L1653,70Z" fill="#036093" stroke="#036093" stroke-width="1.51"/><path d="M1513,-91L1450,105L1653,70Z" fill="#046195" stroke="#046195" stroke-width="1.51"/><path d="M1479,-176L1604,-84L1658,-167Z" fill="#045c90" stroke="#045c90" stroke-width="1.51"/><path d="M1453,986L1587,1191L1588,968Z" fill="#0181b4" stroke="#0181b4" stroke-width="1.51"/><path d="M1453,986L1437,1169L1587,1191Z" fill="#0182b5" stroke="#0182b5" stroke-width="1.51"/><path d="M1467,429L1515,484L1593,335Z" fill="#026ea1" stroke="#026ea1" stroke-width="1.51"/><path d="M1450,105L1467,265L1603,263Z" fill="#03679a" stroke="#03679a" stroke-width="1.51"/><path d="M1479,-176L1513,-91L1604,-84Z" fill="#045d90" stroke="#045d90" stroke-width="1.51"/><path d="M1591,712L1430,794L1615,856Z" fill="#0179ad" stroke="#0179ad" stroke-width="1.51"/><path d="M1474,671L1591,712L1622,578Z" fill="#0176a9" stroke="#0176a9" stroke-width="1.51"/><path d="M1515,484L1474,671L1622,578Z" fill="#0173a6" stroke="#0173a6" stroke-width="1.51"/><path d="M1587,1191L1438,1326L1605,1312Z" fill="#0188bb" stroke="#0188bb" stroke-width="1.51"/><path d="M1453,986L1588,968L1615,856Z" fill="#017eb1" stroke="#017eb1" stroke-width="1.51"/><path d="M1430,794L1453,986L1615,856Z" fill="#017baf" stroke="#017baf" stroke-width="1.51"/><path d="M1467,265L1593,335L1603,263Z" fill="#036a9d" stroke="#036a9d" stroke-width="1.51"/><path d="M1437,1169L1438,1326L1587,1191Z" fill="#0186b9" stroke="#0186b9" stroke-width="1.51"/><path d="M1015,-263L1225,-188L1308,-195Z" fill="#035286" stroke="#035286" stroke-width="1.51"/><path d="M1474,671L1430,794L1591,712Z" fill="#0176aa" stroke="#0176aa" stroke-width="1.51"/><path d="M1467,265L1467,429L1593,335Z" fill="#026b9e" stroke="#026b9e" stroke-width="1.51"/><path d="M1386,-117L1386,103L1450,105Z" fill="#035f92" stroke="#035f92" stroke-width="1.51"/><path d="M1479,-176L1386,-117L1513,-91Z" fill="#045b8e" stroke="#045b8e" stroke-width="1.51"/><path d="M1386,-117L1450,105L1513,-91Z" fill="#045d91" stroke="#045d91" stroke-width="1.51"/><path d="M1364,503L1474,671L1515,484Z" fill="#0170a4" stroke="#0170a4" stroke-width="1.51"/><path d="M1467,429L1364,503L1515,484Z" fill="#016ea1" stroke="#016ea1" stroke-width="1.51"/><path d="M1450,105L1343,206L1467,265Z" fill="#036497" stroke="#036497" stroke-width="1.51"/><path d="M1321,1000L1355,1180L1437,1169Z" fill="#0180b3" stroke="#0180b3" stroke-width="1.51"/><path d="M1437,1169L1355,1180L1438,1326Z" fill="#0184b7" stroke="#0184b7" stroke-width="1.51"/><path d="M1386,103L1343,206L1450,105Z" fill="#036295" stroke="#036295" stroke-width="1.51"/><path d="M1430,794L1313,834L1453,986Z" fill="#0179ac" stroke="#0179ac" stroke-width="1.51"/><path d="M1313,834L1321,1000L1453,986Z" fill="#017aad" stroke="#017aad" stroke-width="1.51"/><path d="M1321,1000L1437,1169L1453,986Z" fill="#017eb2" stroke="#017eb2" stroke-width="1.51"/><path d="M1310,343L1467,429L1467,265Z" fill="#02699c" stroke="#02699c" stroke-width="1.51"/><path d="M1320,635L1430,794L1474,671Z" fill="#0174a7" stroke="#0174a7" stroke-width="1.51"/><path d="M1364,503L1320,635L1474,671Z" fill="#0171a4" stroke="#0171a4" stroke-width="1.51"/><path d="M1308,-195L1386,-117L1479,-176Z" fill="#04588b" stroke="#04588b" stroke-width="1.51"/><path d="M1310,343L1364,503L1467,429Z" fill="#016b9e" stroke="#016b9e" stroke-width="1.51"/><path d="M1343,206L1310,343L1467,265Z" fill="#026699" stroke="#026699" stroke-width="1.51"/><path d="M1218,-19L1386,103L1386,-117Z" fill="#035b8f" stroke="#035b8f" stroke-width="1.51"/><path d="M1355,1180L1281,1258L1438,1326Z" fill="#0184b7" stroke="#0184b7" stroke-width="1.51"/><path d="M1320,635L1313,834L1430,794Z" fill="#0174a7" stroke="#0174a7" stroke-width="1.51"/><path d="M1281,1258L1221,1324L1438,1326Z" fill="#0185b8" stroke="#0185b8" stroke-width="1.51"/><path d="M1321,1000L1236,1024L1355,1180Z" fill="#017db0" stroke="#017db0" stroke-width="1.51"/><path d="M1310,343L1202,425L1364,503Z" fill="#01699c" stroke="#01699c" stroke-width="1.51"/><path d="M1205,108L1343,206L1386,103Z" fill="#036194" stroke="#036194" stroke-width="1.51"/><path d="M1218,-19L1205,108L1386,103Z" fill="#035d90" stroke="#035d90" stroke-width="1.51"/><path d="M1308,-195L1218,-19L1386,-117Z" fill="#03588c" stroke="#03588c" stroke-width="1.51"/><path d="M1225,-188L1218,-19L1308,-195Z" fill="#03568a" stroke="#03568a" stroke-width="1.51"/><path d="M1132,701L1313,834L1320,635Z" fill="#0171a4" stroke="#0171a4" stroke-width="1.51"/><path d="M1313,834L1182,884L1321,1000Z" fill="#0177aa" stroke="#0177aa" stroke-width="1.51"/><path d="M1236,1024L1177,1093L1355,1180Z" fill="#017db0" stroke="#017db0" stroke-width="1.51"/><path d="M1195,547L1320,635L1364,503Z" fill="#016da0" stroke="#016da0" stroke-width="1.51"/><path d="M1202,425L1195,547L1364,503Z" fill="#016a9d" stroke="#016a9d" stroke-width="1.51"/><path d="M1185,254L1310,343L1343,206Z" fill="#026497" stroke="#026497" stroke-width="1.51"/><path d="M1177,1093L1281,1258L1355,1180Z" fill="#0180b3" stroke="#0180b3" stroke-width="1.51"/><path d="M1182,884L1236,1024L1321,1000Z" fill="#0179ac" stroke="#0179ac" stroke-width="1.51"/><path d="M1205,108L1185,254L1343,206Z" fill="#026194" stroke="#026194" stroke-width="1.51"/><path d="M1132,701L1182,884L1313,834Z" fill="#0173a6" stroke="#0173a6" stroke-width="1.51"/><path d="M1195,547L1132,701L1320,635Z" fill="#016ea1" stroke="#016ea1" stroke-width="1.51"/><path d="M1185,254L1202,425L1310,343Z" fill="#026598" stroke="#026598" stroke-width="1.51"/><path d="M1177,1093L1221,1324L1281,1258Z" fill="#0180b3" stroke="#0180b3" stroke-width="1.51"/><path d="M1082,651L1132,701L1195,547Z" fill="#006c9f" stroke="#006c9f" stroke-width="1.51"/><path d="M1185,254L1058,365L1202,425Z" fill="#016497" stroke="#016497" stroke-width="1.51"/><path d="M1177,1093L1026,1139L1221,1324Z" fill="#027db1" stroke="#027db1" stroke-width="1.51"/><path d="M1026,1139L1038,1320L1221,1324Z" fill="#017fb2" stroke="#017fb2" stroke-width="1.51"/><path d="M1056,-51L1218,-19L1225,-188Z" fill="#03568a" stroke="#03568a" stroke-width="1.51"/><path d="M1182,884L1039,995L1236,1024Z" fill="#0177aa" stroke="#0177aa" stroke-width="1.51"/><path d="M1039,995L1177,1093L1236,1024Z" fill="#0179ac" stroke="#0179ac" stroke-width="1.51"/><path d="M1090,883L1039,995L1182,884Z" fill="#0174a7" stroke="#0174a7" stroke-width="1.51"/><path d="M1132,701L1090,883L1182,884Z" fill="#0172a5" stroke="#0172a5" stroke-width="1.51"/><path d="M1072,504L1195,547L1202,425Z" fill="#01689b" stroke="#01689b" stroke-width="1.51"/><path d="M1056,-51L1205,108L1218,-19Z" fill="#03598c" stroke="#03598c" stroke-width="1.51"/><path d="M1015,-263L1056,-51L1225,-188Z" fill="#025286" stroke="#025286" stroke-width="1.51"/><path d="M1007,118L1185,254L1205,108Z" fill="#025d90" stroke="#025d90" stroke-width="1.51"/><path d="M1056,-51L1007,118L1205,108Z" fill="#02598c" stroke="#02598c" stroke-width="1.51"/><path d="M1007,118L990,213L1185,254Z" fill="#025d90" stroke="#025d90" stroke-width="1.51"/><path d="M1058,365L1072,504L1202,425Z" fill="#016598" stroke="#016598" stroke-width="1.51"/><path d="M1072,504L1082,651L1195,547Z" fill="#006a9d" stroke="#006a9d" stroke-width="1.51"/><path d="M990,213L1058,365L1185,254Z" fill="#016093" stroke="#016093" stroke-width="1.51"/><path d="M1039,995L1026,1139L1177,1093Z" fill="#0179ac" stroke="#0179ac" stroke-width="1.51"/><path d="M928,794L1090,883L1132,701Z" fill="#016fa2" stroke="#016fa2" stroke-width="1.51"/><path d="M1082,651L928,794L1132,701Z" fill="#016da0" stroke="#016da0" stroke-width="1.51"/><path d="M1015,-263L920,-200L1056,-51Z" fill="#025084" stroke="#025084" stroke-width="1.51"/><path d="M990,213L932,254L1058,365Z" fill="#015e91" stroke="#015e91" stroke-width="1.51"/><path d="M1058,365L932,365L1072,504Z" fill="#016396" stroke="#016396" stroke-width="1.51"/><path d="M1072,504L927,561L1082,651Z" fill="#00689b" stroke="#00689b" stroke-width="1.51"/><path d="M928,794L1039,995L1090,883Z" fill="#0171a4" stroke="#0171a4" stroke-width="1.51"/><path d="M735,-201L920,-200L1015,-263Z" fill="#014d80" stroke="#014d80" stroke-width="1.51"/><path d="M928,794L860,948L1039,995Z" fill="#0171a4" stroke="#0171a4" stroke-width="1.51"/><path d="M861,694L928,794L1082,651Z" fill="#016b9e" stroke="#016b9e" stroke-width="1.51"/><path d="M927,561L861,694L1082,651Z" fill="#00699c" stroke="#00699c" stroke-width="1.51"/><path d="M1026,1139L840,1235L1038,1320Z" fill="#017bae" stroke="#017bae" stroke-width="1.51"/><path d="M898,87L1007,118L1056,-51Z" fill="#02578a" stroke="#02578a" stroke-width="1.51"/><path d="M932,254L932,365L1058,365Z" fill="#015f93" stroke="#015f93" stroke-width="1.51"/><path d="M932,365L927,561L1072,504Z" fill="#016497" stroke="#016497" stroke-width="1.51"/><path d="M840,1235L713,1316L1038,1320Z" fill="#027bae" stroke="#027bae" stroke-width="1.51"/><path d="M920,-200L848,-96L1056,-51Z" fill="#025184" stroke="#025184" stroke-width="1.51"/><path d="M848,-96L898,87L1056,-51Z" fill="#025487" stroke="#025487" stroke-width="1.51"/><path d="M479,-202L631,-183L735,-201Z" fill="#02477a" stroke="#02477a" stroke-width="1.51"/><path d="M845,1165L840,1235L1026,1139Z" fill="#0178ab" stroke="#0178ab" stroke-width="1.51"/><path d="M860,948L845,1165L1026,1139Z" fill="#0175a8" stroke="#0175a8" stroke-width="1.51"/><path d="M860,948L1026,1139L1039,995Z" fill="#0175a8" stroke="#0175a8" stroke-width="1.51"/><path d="M898,87L990,213L1007,118Z" fill="#02598c" stroke="#02598c" stroke-width="1.51"/><path d="M898,87L932,254L990,213Z" fill="#015a8d" stroke="#015a8d" stroke-width="1.51"/><path d="M24,1277L-162,1330L462,1324Z" fill="#056a9e" stroke="#056a9e" stroke-width="1.51"/><path d="M778,1119L845,1165L860,948Z" fill="#0273a6" stroke="#0273a6" stroke-width="1.51"/><path d="M742,92L709,186L898,87Z" fill="#025488" stroke="#025488" stroke-width="1.51"/><path d="M781,680L861,694L927,561Z" fill="#016699" stroke="#016699" stroke-width="1.51"/><path d="M719,412L706,498L927,561Z" fill="#016093" stroke="#016093" stroke-width="1.51"/><path d="M763,815L860,948L928,794Z" fill="#016da0" stroke="#016da0" stroke-width="1.51"/><path d="M719,412L927,561L932,365Z" fill="#016194" stroke="#016194" stroke-width="1.51"/><path d="M898,87L709,186L932,254Z" fill="#02588b" stroke="#02588b" stroke-width="1.51"/><path d="M719,412L932,365L932,254Z" fill="#025d91" stroke="#025d91" stroke-width="1.51"/><path d="M709,186L719,412L932,254Z" fill="#025a8d" stroke="#025a8d" stroke-width="1.51"/><path d="M233,1267L24,1277L462,1324Z" fill="#056ca0" stroke="#056ca0" stroke-width="1.51"/><path d="M848,-96L742,92L898,87Z" fill="#025386" stroke="#025386" stroke-width="1.51"/><path d="M861,694L763,815L928,794Z" fill="#016a9d" stroke="#016a9d" stroke-width="1.51"/><path d="M706,498L781,680L927,561Z" fill="#016396" stroke="#016396" stroke-width="1.51"/><path d="M704,-11L742,92L848,-96Z" fill="#025083" stroke="#025083" stroke-width="1.51"/><path d="M735,-201L848,-96L920,-200Z" fill="#024d80" stroke="#024d80" stroke-width="1.51"/><path d="M742,988L778,1119L860,948Z" fill="#0271a4" stroke="#0271a4" stroke-width="1.51"/><path d="M548,1294L462,1324L713,1316Z" fill="#0375a8" stroke="#0375a8" stroke-width="1.51"/><path d="M763,815L742,988L860,948Z" fill="#026da1" stroke="#026da1" stroke-width="1.51"/><path d="M781,680L763,815L861,694Z" fill="#01689b" stroke="#01689b" stroke-width="1.51"/><path d="M778,1119L840,1235L845,1165Z" fill="#0276a9" stroke="#0276a9" stroke-width="1.51"/><path d="M735,-201L704,-11L848,-96Z" fill="#024d80" stroke="#024d80" stroke-width="1.51"/><path d="M778,1119L713,1316L840,1235Z" fill="#0277aa" stroke="#0277aa" stroke-width="1.51"/><path d="M585,499L560,742L706,498Z" fill="#015f92" stroke="#015f92" stroke-width="1.51"/><path d="M709,186L589,232L719,412Z" fill="#02578a" stroke="#02578a" stroke-width="1.51"/><path d="M631,-183L704,-11L735,-201Z" fill="#024b7e" stroke="#024b7e" stroke-width="1.51"/><path d="M579,825L742,988L763,815Z" fill="#026a9d" stroke="#026a9d" stroke-width="1.51"/><path d="M570,1097L713,1316L778,1119Z" fill="#0273a6" stroke="#0273a6" stroke-width="1.51"/><path d="M742,988L608,1009L778,1119Z" fill="#026fa3" stroke="#026fa3" stroke-width="1.51"/><path d="M608,1009L570,1097L778,1119Z" fill="#036fa3" stroke="#036fa3" stroke-width="1.51"/><path d="M560,742L763,815L781,680Z" fill="#016699" stroke="#016699" stroke-width="1.51"/><path d="M706,498L560,742L781,680Z" fill="#016396" stroke="#016396" stroke-width="1.51"/><path d="M570,1097L548,1294L713,1316Z" fill="#0373a7" stroke="#0373a7" stroke-width="1.51"/><path d="M589,232L589,410L719,412Z" fill="#02598c" stroke="#02598c" stroke-width="1.51"/><path d="M579,825L608,1009L742,988Z" fill="#026b9e" stroke="#026b9e" stroke-width="1.51"/><path d="M560,742L579,825L763,815Z" fill="#026699" stroke="#026699" stroke-width="1.51"/><path d="M539,64L709,186L742,92Z" fill="#025285" stroke="#025285" stroke-width="1.51"/><path d="M704,-11L539,64L742,92Z" fill="#025083" stroke="#025083" stroke-width="1.51"/><path d="M631,-183L547,-41L704,-11Z" fill="#024b7e" stroke="#024b7e" stroke-width="1.51"/><path d="M539,64L589,232L709,186Z" fill="#025285" stroke="#025285" stroke-width="1.51"/><path d="M589,410L706,498L719,412Z" fill="#025c8f" stroke="#025c8f" stroke-width="1.51"/><path d="M589,410L585,499L706,498Z" fill="#025c8f" stroke="#025c8f" stroke-width="1.51"/><path d="M547,-41L539,64L704,-11Z" fill="#024d80" stroke="#024d80" stroke-width="1.51"/><path d="M405,549L454,744L560,742Z" fill="#025f92" stroke="#025f92" stroke-width="1.51"/><path d="M426,1165L548,1294L570,1097Z" fill="#046fa3" stroke="#046fa3" stroke-width="1.51"/><path d="M405,549L560,742L585,499Z" fill="#015e91" stroke="#015e91" stroke-width="1.51"/><path d="M407,339L589,410L589,232Z" fill="#025589" stroke="#025589" stroke-width="1.51"/><path d="M579,825L485,1028L608,1009Z" fill="#03699d" stroke="#03699d" stroke-width="1.51"/><path d="M479,-202L547,-41L631,-183Z" fill="#02477b" stroke="#02477b" stroke-width="1.51"/><path d="M402,861L485,1028L579,825Z" fill="#03669a" stroke="#03669a" stroke-width="1.51"/><path d="M539,64L423,198L589,232Z" fill="#025083" stroke="#025083" stroke-width="1.51"/><path d="M485,1028L570,1097L608,1009Z" fill="#036c9f" stroke="#036c9f" stroke-width="1.51"/><path d="M174,1260L24,1277L233,1267Z" fill="#056a9d" stroke="#056a9d" stroke-width="1.51"/><path d="M405,549L585,499L589,410Z" fill="#025b8e" stroke="#025b8e" stroke-width="1.51"/><path d="M407,339L405,549L589,410Z" fill="#02578b" stroke="#02578b" stroke-width="1.51"/><path d="M423,198L407,339L589,232Z" fill="#025285" stroke="#025285" stroke-width="1.51"/><path d="M560,742L454,744L579,825Z" fill="#026396" stroke="#026396" stroke-width="1.51"/><path d="M454,744L402,861L579,825Z" fill="#026396" stroke="#026396" stroke-width="1.51"/><path d="M479,-202L397,-79L547,-41Z" fill="#02477a" stroke="#02477a" stroke-width="1.51"/><path d="M485,1028L426,1165L570,1097Z" fill="#036ca0" stroke="#036ca0" stroke-width="1.51"/><path d="M408,58L423,198L539,64Z" fill="#024d80" stroke="#024d80" stroke-width="1.51"/><path d="M408,58L539,64L547,-41Z" fill="#024c7f" stroke="#024c7f" stroke-width="1.51"/><path d="M426,1165L462,1324L548,1294Z" fill="#0471a4" stroke="#0471a4" stroke-width="1.51"/><path d="M397,-79L408,58L547,-41Z" fill="#02497c" stroke="#02497c" stroke-width="1.51"/><path d="M316,418L405,549L407,339Z" fill="#025689" stroke="#025689" stroke-width="1.51"/><path d="M405,549L254,669L454,744Z" fill="#025c90" stroke="#025c90" stroke-width="1.51"/><path d="M271,990L426,1165L485,1028Z" fill="#04699d" stroke="#04699d" stroke-width="1.51"/><path d="M402,861L271,990L485,1028Z" fill="#036599" stroke="#036599" stroke-width="1.51"/><path d="M408,58L340,114L423,198Z" fill="#024c7f" stroke="#024c7f" stroke-width="1.51"/><path d="M271,990L280,1148L426,1165Z" fill="#04689c" stroke="#04689c" stroke-width="1.51"/><path d="M249,-203L397,-79L479,-202Z" fill="#024376" stroke="#024376" stroke-width="1.51"/><path d="M426,1165L233,1267L462,1324Z" fill="#056ea2" stroke="#056ea2" stroke-width="1.51"/><path d="M316,418L323,534L405,549Z" fill="#02578a" stroke="#02578a" stroke-width="1.51"/><path d="M309,289L407,339L423,198Z" fill="#025184" stroke="#025184" stroke-width="1.51"/><path d="M280,1148L233,1267L426,1165Z" fill="#046b9e" stroke="#046b9e" stroke-width="1.51"/><path d="M285,837L402,861L454,744Z" fill="#036295" stroke="#036295" stroke-width="1.51"/><path d="M254,669L285,837L454,744Z" fill="#035f92" stroke="#035f92" stroke-width="1.51"/><path d="M22,-218L86,-194L249,-203Z" fill="#013d70" stroke="#013d70" stroke-width="1.51"/><path d="M249,-203L318,-54L397,-79Z" fill="#024376" stroke="#024376" stroke-width="1.51"/><path d="M323,534L254,669L405,549Z" fill="#02598d" stroke="#02598d" stroke-width="1.51"/><path d="M397,-79L318,-54L408,58Z" fill="#02477b" stroke="#02477b" stroke-width="1.51"/><path d="M340,114L309,289L423,198Z" fill="#024e81" stroke="#024e81" stroke-width="1.51"/><path d="M285,837L271,990L402,861Z" fill="#036296" stroke="#036296" stroke-width="1.51"/><path d="M309,289L316,418L407,339Z" fill="#025285" stroke="#025285" stroke-width="1.51"/><path d="M318,-54L340,114L408,58Z" fill="#02497c" stroke="#02497c" stroke-width="1.51"/><path d="M107,192L309,289L340,114Z" fill="#024b7e" stroke="#024b7e" stroke-width="1.51"/><path d="M166,40L107,192L340,114Z" fill="#02487b" stroke="#02487b" stroke-width="1.51"/><path d="M318,-54L166,40L340,114Z" fill="#02477a" stroke="#02477a" stroke-width="1.51"/><path d="M254,669L176,812L285,837Z" fill="#035d90" stroke="#035d90" stroke-width="1.51"/><path d="M309,289L129,427L316,418Z" fill="#025184" stroke="#025184" stroke-width="1.51"/><path d="M249,-203L95,-33L318,-54Z" fill="#024275" stroke="#024275" stroke-width="1.51"/><path d="M108,508L254,669L323,534Z" fill="#02578a" stroke="#02578a" stroke-width="1.51"/><path d="M316,418L129,427L323,534Z" fill="#025487" stroke="#025487" stroke-width="1.51"/><path d="M129,427L108,508L323,534Z" fill="#025487" stroke="#025487" stroke-width="1.51"/><path d="M95,-33L166,40L318,-54Z" fill="#024477" stroke="#024477" stroke-width="1.51"/><path d="M166,700L176,812L254,669Z" fill="#035b8e" stroke="#035b8e" stroke-width="1.51"/><path d="M176,812L271,990L285,837Z" fill="#036094" stroke="#036094" stroke-width="1.51"/><path d="M107,192L129,427L309,289Z" fill="#024d81" stroke="#024d81" stroke-width="1.51"/><path d="M86,-194L95,-33L249,-203Z" fill="#023f72" stroke="#023f72" stroke-width="1.51"/><path d="M108,508L166,700L254,669Z" fill="#02578a" stroke="#02578a" stroke-width="1.51"/><path d="M176,812L106,1005L271,990Z" fill="#046094" stroke="#046094" stroke-width="1.51"/><path d="M174,1260L233,1267L280,1148Z" fill="#056a9e" stroke="#056a9e" stroke-width="1.51"/><path d="M271,990L106,1005L280,1148Z" fill="#046598" stroke="#046598" stroke-width="1.51"/><path d="M106,1005L109,1189L280,1148Z" fill="#056699" stroke="#056699" stroke-width="1.51"/><path d="M109,1189L174,1260L280,1148Z" fill="#05689c" stroke="#05689c" stroke-width="1.51"/><path d="M107,192L23,337L129,427Z" fill="#024c7f" stroke="#024c7f" stroke-width="1.51"/><path d="M-1,546L31,717L108,508Z" fill="#025487" stroke="#025487" stroke-width="1.51"/><path d="M-38,137L107,192L166,40Z" fill="#024679" stroke="#024679" stroke-width="1.51"/><path d="M108,508L31,717L166,700Z" fill="#025689" stroke="#025689" stroke-width="1.51"/><path d="M-44,804L106,1005L176,812Z" fill="#035c90" stroke="#035c90" stroke-width="1.51"/><path d="M31,717L-44,804L176,812Z" fill="#03598c" stroke="#03598c" stroke-width="1.51"/><path d="M166,700L31,717L176,812Z" fill="#02598d" stroke="#02598d" stroke-width="1.51"/><path d="M109,1189L24,1277L174,1260Z" fill="#05689b" stroke="#05689b" stroke-width="1.51"/><path d="M95,-33L-38,137L166,40Z" fill="#024376" stroke="#024376" stroke-width="1.51"/><path d="M86,-194L-40,-50L95,-33Z" fill="#013f72" stroke="#013f72" stroke-width="1.51"/><path d="M-43,1015L-53,1154L106,1005Z" fill="#046094" stroke="#046094" stroke-width="1.51"/><path d="M-44,804L-43,1015L106,1005Z" fill="#045d90" stroke="#045d90" stroke-width="1.51"/><path d="M-24,287L23,337L107,192Z" fill="#02497c" stroke="#02497c" stroke-width="1.51"/><path d="M106,1005L-53,1154L109,1189Z" fill="#046396" stroke="#046396" stroke-width="1.51"/><path d="M-1,546L108,508L129,427Z" fill="#015184" stroke="#015184" stroke-width="1.51"/><path d="M23,337L-1,546L129,427Z" fill="#024f82" stroke="#024f82" stroke-width="1.51"/><path d="M22,-218L-40,-50L86,-194Z" fill="#013c6f" stroke="#013c6f" stroke-width="1.51"/><path d="M-40,-50L-38,137L95,-33Z" fill="#024174" stroke="#024174" stroke-width="1.51"/><path d="M-53,1154L24,1277L109,1189Z" fill="#056599" stroke="#056599" stroke-width="1.51"/><path d="M-38,137L-24,287L107,192Z" fill="#02477a" stroke="#02477a" stroke-width="1.51"/><path d="M-44,804L-170,934L-43,1015Z" fill="#045a8d" stroke="#045a8d" stroke-width="1.51"/><path d="M-40,-50L-119,-17L-38,137Z" fill="#023f73" stroke="#023f73" stroke-width="1.51"/><path d="M-208,-192L-40,-50L22,-218Z" fill="#013a6d" stroke="#013a6d" stroke-width="1.51"/><path d="M-24,287L-189,358L23,337Z" fill="#02497c" stroke="#02497c" stroke-width="1.51"/><path d="M-189,358L-171,487L23,337Z" fill="#024a7d" stroke="#024a7d" stroke-width="1.51"/><path d="M-171,487L-1,546L23,337Z" fill="#024e81" stroke="#024e81" stroke-width="1.51"/><path d="M-1,546L-196,687L31,717Z" fill="#025387" stroke="#025387" stroke-width="1.51"/><path d="M-196,687L-44,804L31,717Z" fill="#035589" stroke="#035589" stroke-width="1.51"/><path d="M-38,137L-124,225L-24,287Z" fill="#024579" stroke="#024579" stroke-width="1.51"/><path d="M-53,1154L-162,1330L24,1277Z" fill="#066498" stroke="#066498" stroke-width="1.51"/><path d="M-171,487L-196,687L-1,546Z" fill="#024f83" stroke="#024f83" stroke-width="1.51"/><path d="M-180,1169L-162,1330L-53,1154Z" fill="#066295" stroke="#066295" stroke-width="1.51"/><path d="M-196,687L-171,806L-44,804Z" fill="#045588" stroke="#045588" stroke-width="1.51"/><path d="M-171,806L-170,934L-44,804Z" fill="#04588b" stroke="#04588b" stroke-width="1.51"/><path d="M-180,1169L-53,1154L-43,1015Z" fill="#056093" stroke="#056093" stroke-width="1.51"/><path d="M-208,-192L-119,-17L-40,-50Z" fill="#013b6e" stroke="#013b6e" stroke-width="1.51"/><path d="M-119,-17L-172,106L-38,137Z" fill="#024073" stroke="#024073" stroke-width="1.51"/><path d="M-124,225L-189,358L-24,287Z" fill="#02477a" stroke="#02477a" stroke-width="1.51"/><path d="M-170,934L-180,1169L-43,1015Z" fill="#055c90" stroke="#055c90" stroke-width="1.51"/><path d="M-172,106L-124,225L-38,137Z" fill="#024376" stroke="#024376" stroke-width="1.51"/><path d="M-208,-192L-172,106L-119,-17Z" fill="#013c6f" stroke="#013c6f" stroke-width="1.51"/><path d="M-172,106L-189,358L-124,225Z" fill="#014477" stroke="#014477" stroke-width="1.51"/><path d="M-171,806L-196,687L-170,934Z" fill="#035588" stroke="#035588" stroke-width="1.51"/><path d="M-196,687L-180,1169L-170,934Z" fill="#04588c" stroke="#04588c" stroke-width="1.51"/><path d="M-189,358L-196,687L-171,487Z" fill="#024c7f" stroke="#024c7f" stroke-width="1.51"/><path d="M-208,-192L-189,358L-172,106Z" fill="#013f72" stroke="#013f72" stroke-width="1.51"/><path d="M-208,-192L-196,687L-189,358Z" fill="#024578" stroke="#024578" stroke-width="1.51"/></svg>